<svg width="21" height="21" viewBox="0 0 21 21" fill="none" xmlns="http://www.w3.org/2000/svg">
<path fill-rule="evenodd" clip-rule="evenodd" d="M10.497 0.506005C7.782 0.506005 7.441 0.518005 6.375 0.566005C5.311 0.615005 4.585 0.784005 3.949 1.031C3.28183 1.28195 2.67744 1.67543 2.178 2.184C1.66955 2.68316 1.27607 3.28719 1.025 3.954C0.778 4.592 0.609 5.318 0.56 6.382C0.512 7.448 0.5 7.78801 0.5 10.503C0.5 13.218 0.512 13.559 0.56 14.625C0.609 15.689 0.778 16.415 1.025 17.051C1.27594 17.7182 1.66943 18.3226 2.178 18.822C2.67715 19.3305 3.28119 19.7239 3.948 19.975C4.584 20.222 5.311 20.391 6.375 20.44C7.441 20.488 7.782 20.5 10.497 20.5C13.212 20.5 13.552 20.488 14.619 20.44C15.683 20.391 16.409 20.222 17.045 19.975C17.7118 19.7239 18.3158 19.3305 18.815 18.822C19.3238 18.323 19.7176 17.7189 19.969 17.052C20.216 16.416 20.385 15.689 20.434 14.625C20.482 13.559 20.494 13.218 20.494 10.503C20.494 7.78801 20.482 7.448 20.434 6.381C20.385 5.317 20.216 4.591 19.969 3.955C19.7179 3.28819 19.3245 2.68416 18.816 2.185C18.317 1.67583 17.713 1.28166 17.046 1.03C16.409 0.783005 15.683 0.614005 14.619 0.565005C13.552 0.517005 13.212 0.505005 10.497 0.505005V0.506005ZM10.497 2.308C13.167 2.308 13.482 2.318 14.537 2.366C15.511 2.41 16.04 2.573 16.393 2.71C16.859 2.891 17.193 3.108 17.543 3.458C17.892 3.808 18.109 4.141 18.29 4.608C18.427 4.96 18.59 5.488 18.634 6.464C18.682 7.51801 18.692 7.834 18.692 10.504C18.692 13.172 18.682 13.489 18.634 14.543C18.59 15.517 18.427 16.047 18.29 16.399C18.109 16.866 17.892 17.199 17.542 17.549C17.192 17.899 16.859 18.115 16.392 18.296C16.04 18.433 15.512 18.596 14.536 18.64C13.482 18.689 13.166 18.699 10.496 18.699C7.827 18.699 7.511 18.689 6.457 18.64C5.483 18.596 4.953 18.433 4.601 18.296C4.16657 18.1358 3.7736 17.8802 3.451 17.548C3.11932 17.2256 2.86407 16.833 2.704 16.399C2.567 16.047 2.404 15.517 2.36 14.543C2.311 13.489 2.301 13.173 2.301 10.503C2.301 7.833 2.311 7.518 2.36 6.463C2.404 5.489 2.567 4.96 2.704 4.607C2.885 4.141 3.102 3.807 3.452 3.457C3.802 3.108 4.134 2.891 4.601 2.71C4.953 2.573 5.483 2.41 6.457 2.366C7.511 2.318 7.827 2.308 10.497 2.308V2.308Z" fill="white"/>
<path fill-rule="evenodd" clip-rule="evenodd" d="M10.497 13.835C9.61332 13.835 8.76582 13.484 8.14095 12.8591C7.51608 12.2342 7.16503 11.3867 7.16503 10.503C7.16503 9.61934 7.51608 8.77183 8.14095 8.14696C8.76582 7.52209 9.61332 7.17104 10.497 7.17104C11.3807 7.17104 12.2282 7.52209 12.8531 8.14696C13.478 8.77183 13.829 9.61934 13.829 10.503C13.829 11.3867 13.478 12.2342 12.8531 12.8591C12.2282 13.484 11.3807 13.835 10.497 13.835V13.835ZM10.497 5.37004C9.13554 5.37004 7.82981 5.91089 6.86709 6.87361C5.90438 7.83633 5.36353 9.14205 5.36353 10.5035C5.36353 11.865 5.90438 13.1708 6.86709 14.1335C7.82981 15.0962 9.13554 15.637 10.497 15.637C11.8585 15.637 13.1642 15.0962 14.127 14.1335C15.0897 13.1708 15.6305 11.865 15.6305 10.5035C15.6305 9.14205 15.0897 7.83633 14.127 6.87361C13.1642 5.91089 11.8585 5.37004 10.497 5.37004V5.37004ZM17.033 5.16704C17.033 5.4853 16.9066 5.79053 16.6816 6.01557C16.4565 6.24061 16.1513 6.36704 15.833 6.36704C15.5148 6.36704 15.2095 6.24061 14.9845 6.01557C14.7595 5.79053 14.633 5.4853 14.633 5.16704C14.633 4.84878 14.7595 4.54356 14.9845 4.31851C15.2095 4.09347 15.5148 3.96704 15.833 3.96704C16.1513 3.96704 16.4565 4.09347 16.6816 4.31851C16.9066 4.54356 17.033 4.84878 17.033 5.16704" fill="white"/>
</svg>
