<svg width="18" height="17" viewBox="0 0 18 17" fill="none" xmlns="http://www.w3.org/2000/svg">
<path fill-rule="evenodd" clip-rule="evenodd" d="M17.195 16.667H13.738V11.253C13.738 9.96202 13.714 8.30102 11.94 8.30102C10.14 8.30102 9.86299 9.70702 9.86299 11.159V16.667H6.40599V5.53402H9.72499V7.05502H9.77099C10.233 6.18002 11.361 5.25702 13.045 5.25702C16.548 5.25702 17.195 7.56302 17.195 10.56V16.667ZM2.50699 4.01202C1.97483 4.01202 1.46447 3.80063 1.08818 3.42433C0.711887 3.04804 0.500488 2.53768 0.500488 2.00552C0.500488 1.47337 0.711887 0.963006 1.08818 0.586714C1.46447 0.210422 1.97483 -0.000976562 2.50699 -0.000976562C3.03915 -0.000976562 3.54951 0.210422 3.9258 0.586714C4.30209 0.963006 4.51349 1.47337 4.51349 2.00552C4.51349 2.53768 4.30209 3.04804 3.9258 3.42433C3.54951 3.80063 3.03915 4.01202 2.50699 4.01202ZM0.775989 16.667H4.23599V5.53402H0.775989V16.667Z" fill="white"/>
</svg>
