<svg width="20" height="17" viewBox="0 0 20 17" fill="none" xmlns="http://www.w3.org/2000/svg">
<path d="M6.29 16.9179C13.837 16.9179 17.965 10.6649 17.965 5.24295C17.965 5.06495 17.965 4.88795 17.953 4.71295C18.7562 4.13146 19.4493 3.41155 20 2.58695C19.2511 2.91895 18.4566 3.13671 17.643 3.23295C18.4996 2.72001 19.1408 1.9133 19.447 0.962949C18.6417 1.44085 17.7607 1.7777 16.842 1.95895C16.2234 1.30071 15.405 0.864783 14.5136 0.718654C13.6222 0.572524 12.7075 0.724348 11.9111 1.15062C11.1147 1.57689 10.4811 2.25382 10.1083 3.07661C9.7355 3.8994 9.64437 4.82213 9.849 5.70195C8.21751 5.62007 6.62148 5.196 5.16452 4.45726C3.70755 3.71853 2.42223 2.68166 1.392 1.41395C0.867019 2.31724 0.706121 3.38669 0.94208 4.40447C1.17804 5.42225 1.7931 6.3118 2.662 6.89195C2.0091 6.8724 1.37047 6.69611 0.8 6.37795V6.42995C0.800159 7.37742 1.12806 8.29566 1.72808 9.02892C2.3281 9.76218 3.1633 10.2653 4.092 10.4529C3.4878 10.6176 2.8539 10.6415 2.239 10.5229C2.50116 11.3384 3.01168 12.0515 3.69913 12.5626C4.38658 13.0736 5.21657 13.3569 6.073 13.3729C5.22209 14.0415 4.24776 14.5357 3.2057 14.8274C2.16365 15.1191 1.07432 15.2025 0 15.0729C1.87663 16.2772 4.0602 16.916 6.29 16.9129" fill="white"/>
</svg>
