<svg width="74" height="74" viewBox="0 0 74 74" fill="none" xmlns="http://www.w3.org/2000/svg">
<path d="M11.4566 25.5434H2.16797C0.970672 25.5434 0 26.5141 0 27.7114V50.9328C0 52.1301 0.970672 53.1008 2.16797 53.1008H11.4566C12.6539 53.1008 13.6245 52.1301 13.6245 50.9328V27.7114C13.6245 26.5141 12.6539 25.5434 11.4566 25.5434ZM52.094 50.6245C53.2913 50.6245 54.2619 49.6539 54.2619 48.4566V43.6581H54.416C55.6133 43.6581 56.584 42.6874 56.584 41.4902C56.584 40.2929 55.6133 39.3222 54.416 39.3222H54.2619V27.5573C54.2619 27.1286 54.1348 26.7095 53.8966 26.353C53.6584 25.9965 53.3199 25.7186 52.9238 25.5545C52.5277 25.3904 52.0918 25.3474 51.6713 25.431C51.2507 25.5146 50.8644 25.721 50.5612 26.0242C50.5612 26.0242 43.7924 32.7907 40.5832 35.9975C39.1418 37.4467 38.3152 39.4488 38.3152 41.4902C38.3152 42.6874 39.2859 43.6581 40.4832 43.6581H49.926V48.4566C49.926 49.6539 50.8965 50.6245 52.094 50.6245ZM43.4179 39.3222C43.4916 39.2308 43.57 39.1432 43.6528 39.0599C45.2766 37.4372 47.8161 34.8989 49.9259 32.79V39.3222H43.4179ZM34.5236 48.4566C34.5236 47.2593 33.5529 46.2886 32.3556 46.2886H23.6799C23.7535 46.1971 23.8318 46.1096 23.9146 46.0263C27.2394 42.7034 30.564 39.3803 33.8884 36.0569C34.0898 35.8556 34.2496 35.6166 34.3586 35.3535C34.4676 35.0905 34.5237 34.8085 34.5237 34.5237V33.3627C34.5237 28.9662 30.947 25.3894 26.5505 25.3894C22.1123 25.3894 18.5772 28.9844 18.5772 33.3603V33.3626C18.5772 34.5599 19.5479 35.5294 20.7451 35.5294C21.9424 35.5294 22.9131 34.5576 22.9131 33.3603C22.9131 31.3714 24.5145 29.7253 26.5505 29.7253C28.5562 29.7253 30.1878 31.3571 30.1878 33.3627V33.6255C27.0737 36.7385 23.9595 39.8514 20.845 42.9641C19.4036 44.4133 18.5772 46.4153 18.5772 48.4566C18.5772 49.6539 19.5479 50.6245 20.7451 50.6245H32.3558C33.5529 50.6245 34.5236 49.6539 34.5236 48.4566ZM37 4.33594C47.8812 4.33594 57.0497 11.8094 59.6424 21.8929C60.5428 21.4414 61.5363 21.2067 62.5436 21.2075H63.9387C61.0045 9.05517 50.0406 0 37 0C23.9594 0 12.9955 9.05517 10.0614 21.2075H11.4566C12.4638 21.2067 13.4573 21.4414 14.3577 21.8929C16.9503 11.8094 26.1188 4.33594 37 4.33594ZM59.2189 56.52C57.0518 61.516 52.072 65.0198 46.2886 65.0198H43.4566C42.5488 62.3236 39.9984 60.3756 37.0001 60.3756C33.2439 60.3756 30.1878 63.4316 30.1878 67.1878C30.1878 70.944 33.2438 74 37 74C39.9983 74 42.5487 72.052 43.4565 69.3558H46.2884C54.1583 69.3558 60.8903 64.395 63.5247 57.4367H62.5434C61.3294 57.4367 60.1925 57.1014 59.2189 56.52ZM71.832 25.5434H62.5434C61.3461 25.5434 60.3755 26.5141 60.3755 27.7114V50.9328C60.3755 52.1301 61.3461 53.1008 62.5434 53.1008H71.832C73.0293 53.1008 74 52.1301 74 50.9328V27.7114C74 26.5141 73.0293 25.5434 71.832 25.5434Z" fill="#00FF99"/>
</svg>
