<svg width="192" height="65" viewBox="0 0 192 65" fill="none" xmlns="http://www.w3.org/2000/svg">
<path d="M36.3597 32.22C35.8197 29.71 34.9397 27.48 33.7097 25.55C33.2097 24.8 32.6596 24.08 32.0696 23.41C32.0796 23.4 32.0796 23.39 32.0896 23.38C33.9796 20.52 35.2896 17.23 35.8496 13.7C36.0496 12.44 36.1497 11.15 36.1497 9.84V9.70999C36.1397 6.87999 34.4797 4.33001 31.9297 3.10001C30.7397 2.52001 29.5097 2.02001 28.2397 1.60001C25.1397 0.560006 21.8097 0 18.3597 0C14.8197 0 11.4196 0.589983 8.24964 1.66998C6.96964 2.10998 5.72965 2.62 4.53965 3.22C2.02965 4.46 0.379644 6.99001 0.379644 9.79001V9.82999C0.379644 11.2 0.489661 12.55 0.709661 13.86C1.28966 17.39 2.61965 20.67 4.53965 23.53C4.10965 24.02 3.69965 24.54 3.31965 25.08C3.27965 25.13 3.24964 25.18 3.21964 25.23C2.99964 25.54 2.79965 25.86 2.59965 26.18C1.57965 27.89 0.819654 29.78 0.389654 31.79C0.209654 32.61 0.099638 33.45 0.029638 34.3C-0.030362 35.43 -0.00035587 36.59 0.129644 37.78C0.209644 38.54 0.349659 39.3 0.519659 40.03C0.539659 40.1 0.559656 40.18 0.579656 40.25C1.20966 42.79 2.32966 45.17 3.64966 47.46C6.47966 52.41 10.1397 56.7 14.1797 60.69C15.5197 62.01 16.9197 63.27 18.2997 64.56C18.4997 64.4 18.6297 64.3 18.7596 64.2C21.6596 61.69 24.3697 58.98 26.8697 56.07C30.0997 52.31 32.9597 48.31 34.9197 43.72C34.9797 43.57 35.0497 43.42 35.1097 43.26C36.5297 39.72 37.1797 36.04 36.3597 32.22ZM10.4597 35.59C10.4897 31.31 14.0596 27.79 18.3496 27.81C22.7096 27.83 26.2297 31.4 26.1997 35.76C26.1697 40.08 22.6196 43.58 18.2796 43.55C13.9096 43.52 10.4297 39.98 10.4597 35.59ZM8.39966 8.44C10.3597 7.55 13.7297 6.44998 18.3597 6.44998C23.0497 6.44998 26.3696 7.53999 28.2796 8.39999C29.4696 8.93999 30.1896 10.19 30.0596 11.49C29.8796 13.27 29.4596 15.03 28.8396 16.66C28.2396 18.25 26.4696 19.06 24.8796 18.45C22.8596 17.69 20.6597 17.26 18.3697 17.26C18.3197 17.26 18.2597 17.26 18.2097 17.26C15.9397 17.28 13.7596 17.71 11.7596 18.48C11.6496 18.52 11.5296 18.56 11.4096 18.59C9.88964 18.98 8.28964 18.15 7.74964 16.63C7.19964 15.06 6.83965 13.37 6.60965 11.65C6.40966 10.31 7.14966 9 8.39966 8.44Z" fill="url(#paint0_linear_26_235)"/>
<path d="M51.7297 28.9301V32.39H60.1497V37.5201H51.7297V43.98H44.9297V23.8101H61.3297V28.9401H51.7297V28.9301Z" fill="#231F20"/>
<path d="M63.4096 26.01C62.6896 25.39 62.3296 24.5901 62.3296 23.6301C62.3296 22.6701 62.6896 21.8801 63.4096 21.2501C64.1296 20.6301 65.0796 20.3101 66.2496 20.3101C67.4396 20.3101 68.3896 20.61 69.0996 21.2C69.8096 21.8 70.1696 22.56 70.1696 23.51C70.1696 24.51 69.8096 25.3301 69.0996 25.9701C68.3896 26.6101 67.4396 26.9401 66.2496 26.9401C65.0796 26.9401 64.1396 26.63 63.4096 26.01ZM62.9996 28.2101H69.5096V43.9701H62.9996V28.2101Z" fill="#231F20"/>
<path d="M84.0097 43.4301C83.0297 43.9901 81.6897 44.2701 79.9997 44.2701C77.7897 44.2701 76.0897 43.7401 74.8997 42.6701C73.7097 41.6001 73.1097 40.0001 73.1097 37.8701V33.8301H70.9497V29.0702H73.1097V24.6602H79.6197V29.0702H82.8497V33.8301H79.6197V37.8102C79.6197 38.2901 79.7397 38.6701 79.9897 38.9301C80.2397 39.2001 80.5697 39.3301 80.9697 39.3301C81.5297 39.3301 82.0197 39.1901 82.4397 38.9001L84.0097 43.4301Z" fill="#231F20"/>
<path d="M99.5997 40.4601H91.9297L90.5797 43.98H83.6597L92.4797 23.8101H99.1697L107.99 43.98H100.96L99.5997 40.4601ZM97.7197 35.5601L95.7597 30.4901L93.7997 35.5601H97.7197Z" fill="#231F20"/>
<path d="M126.17 22.5901V43.9701H119.97V42.6701C119.03 43.7301 117.59 44.2501 115.65 44.2501C114.27 44.2501 112.99 43.9201 111.83 43.2601C110.67 42.6001 109.75 41.6401 109.06 40.3901C108.38 39.1401 108.04 37.7001 108.04 36.0701C108.04 34.4401 108.38 33.0001 109.06 31.7601C109.74 30.5201 110.66 29.5701 111.83 28.9101C112.99 28.2501 114.27 27.9201 115.65 27.9201C117.4 27.9201 118.73 28.3701 119.66 29.2701V22.5801H126.17V22.5901ZM119.05 38.3701C119.53 37.8201 119.77 37.0601 119.77 36.0801C119.77 35.1001 119.53 34.3401 119.05 33.8001C118.57 33.2601 117.95 32.9901 117.21 32.9901C116.46 32.9901 115.85 33.2601 115.37 33.8001C114.89 34.3401 114.65 35.1001 114.65 36.0801C114.65 37.0601 114.89 37.8201 115.37 38.3701C115.85 38.9201 116.47 39.1901 117.21 39.1901C117.96 39.1901 118.57 38.9201 119.05 38.3701Z" fill="#231F20"/>
<path d="M146.6 28.21L140.26 43.97H133.52L127.18 28.21H133.87L137.04 36.65L140.44 28.21H146.6Z" fill="#231F20"/>
<path d="M148.03 26.01C147.31 25.39 146.95 24.5901 146.95 23.6301C146.95 22.6701 147.31 21.8801 148.03 21.2501C148.75 20.6301 149.7 20.3101 150.87 20.3101C152.06 20.3101 153.01 20.61 153.72 21.2C154.43 21.8 154.79 22.56 154.79 23.51C154.79 24.51 154.43 25.3301 153.72 25.9701C153.01 26.6101 152.06 26.9401 150.87 26.9401C149.7 26.9401 148.75 26.63 148.03 26.01ZM147.61 28.2101H154.12V43.9701H147.61V28.2101Z" fill="#231F20"/>
<path d="M160.68 43.2202C159.27 42.5302 158.16 41.5602 157.37 40.3102C156.57 39.0602 156.17 37.6502 156.17 36.0702C156.17 34.4902 156.57 33.0902 157.37 31.8502C158.17 30.6102 159.27 29.6501 160.68 28.9501C162.09 28.2601 163.69 27.9102 165.48 27.9102C167.4 27.9102 169.04 28.3201 170.41 29.1501C171.77 29.9801 172.72 31.1201 173.23 32.5801L168.19 35.0602C167.57 33.6802 166.66 32.9801 165.45 32.9801C164.68 32.9801 164.04 33.2502 163.53 33.7902C163.02 34.3302 162.77 35.0902 162.77 36.0702C162.77 37.0702 163.02 37.8402 163.53 38.3802C164.04 38.9202 164.68 39.1902 165.45 39.1902C166.66 39.1902 167.57 38.5001 168.19 37.1101L173.23 39.5901C172.71 41.0501 171.77 42.1901 170.41 43.0201C169.05 43.8501 167.4 44.2601 165.48 44.2601C163.69 44.2601 162.09 43.9202 160.68 43.2202Z" fill="#231F20"/>
<path d="M191.27 37.6102H180.32C180.55 38.2102 180.93 38.6602 181.47 38.9802C182.01 39.3002 182.68 39.4602 183.49 39.4602C184.18 39.4602 184.76 39.3702 185.23 39.2002C185.7 39.0302 186.21 38.7302 186.77 38.3102L190.17 41.7402C188.63 43.4302 186.34 44.2802 183.28 44.2802C181.38 44.2802 179.71 43.9302 178.27 43.2302C176.83 42.5302 175.71 41.5502 174.93 40.3002C174.14 39.0502 173.75 37.6502 173.75 36.0902C173.75 34.5102 174.14 33.1102 174.92 31.8702C175.7 30.6302 176.76 29.6702 178.12 28.9702C179.47 28.2802 181 27.9302 182.69 27.9302C184.28 27.9302 185.74 28.2502 187.06 28.8802C188.38 29.5102 189.419 30.4502 190.199 31.6802C190.979 32.9102 191.37 34.3802 191.37 36.0902C191.36 36.1702 191.33 36.6802 191.27 37.6102ZM181.07 32.9102C180.63 33.2802 180.34 33.7902 180.21 34.4702H185.28C185.15 33.8202 184.86 33.3002 184.42 32.9302C183.98 32.5602 183.42 32.3702 182.75 32.3702C182.07 32.3602 181.51 32.5402 181.07 32.9102Z" fill="#231F20"/>
<defs>
<linearGradient id="paint0_linear_26_235" x1="18.3551" y1="1.6426" x2="18.3551" y2="56.3626" gradientUnits="userSpaceOnUse">
<stop stop-color="#3EFFFF"/>
<stop offset="1" stop-color="#00FF99"/>
</linearGradient>
</defs>
</svg>
