<svg width="31" height="56" viewBox="0 0 31 56" fill="none" xmlns="http://www.w3.org/2000/svg">
<path d="M15.8833 0.594172C19.8723 0.59855 23.6966 2.1851 26.5173 5.00572C29.3379 7.82634 30.9244 11.6507 30.9288 15.6396C30.9288 15.6644 30.9288 15.6902 30.9288 15.715C30.9288 15.7646 30.9352 15.839 30.9407 15.9374C31.2495 21.4013 30.3563 36.1536 15.4303 55.0567C15.2959 55.2264 15.1058 55.3433 14.8937 55.3866C14.6815 55.4299 14.4608 55.3969 14.2706 55.2934C14.0804 55.1899 13.9329 55.0225 13.854 54.8208C13.7752 54.6191 13.7701 54.3961 13.8397 54.191C13.8819 54.0661 17.961 41.8472 15.1739 30.6667C11.2484 30.4825 7.55067 28.7696 4.87162 25.8944C2.19256 23.0193 0.744809 19.2099 0.837963 15.2812C0.931117 11.3524 2.55778 7.61595 5.3701 4.87096C8.18241 2.12596 11.9571 0.590291 15.887 0.592335L15.8833 0.594172ZM29.091 15.5873C29.0808 12.9772 28.2975 10.4288 26.8401 8.26356C25.3827 6.09836 23.3164 4.41352 20.9021 3.42175C18.4879 2.42998 15.8339 2.17576 13.2753 2.69118C10.7166 3.20659 8.36808 4.46853 6.52611 6.31769C4.68413 8.16684 3.43133 10.5203 2.92587 13.0809C2.4204 15.6415 2.68494 18.2945 3.68609 20.7049C4.68724 23.1152 6.3801 25.175 8.55096 26.624C10.7218 28.073 13.2733 28.8463 15.8833 28.8463C16.0846 28.8464 16.2802 28.9125 16.4403 29.0345C16.6003 29.1565 16.7159 29.3277 16.7692 29.5217C18.8827 37.2131 17.8462 45.2812 16.7958 50.1772C28.6352 33.5925 29.3795 20.9335 29.1029 16.0403C29.0901 15.8896 29.0861 15.7384 29.091 15.5873V15.5873Z" fill="url(#paint0_linear_12_108)"/>
<defs>
<linearGradient id="paint0_linear_12_108" x1="15.9135" y1="54.0105" x2="15.9135" y2="7.5521" gradientUnits="userSpaceOnUse">
<stop stop-color="#3EFFFF"/>
<stop offset="1" stop-color="#00FF99"/>
</linearGradient>
</defs>
</svg>
