<svg width="74" height="74" viewBox="0 0 74 74" fill="none" xmlns="http://www.w3.org/2000/svg">
<g clip-path="url(#clip0_12_50)">
<path d="M68.01 19.0537C67.9721 17.0558 67.9358 15.1684 67.9358 13.3425C67.9358 12.6555 67.6629 11.9967 67.1771 11.511C66.6914 11.0252 66.0326 10.7523 65.3456 10.7523C54.2682 10.7523 45.8342 7.56879 38.8041 0.733448C38.3207 0.263141 37.6728 0 36.9984 0C36.3239 0 35.6761 0.263141 35.1927 0.733448C28.1633 7.56879 19.7306 10.7523 8.65395 10.7523C7.96699 10.7523 7.30816 11.0252 6.82241 11.511C6.33665 11.9967 6.06376 12.6555 6.06376 13.3425C6.06376 15.1687 6.02784 17.0568 5.98951 19.0551C5.63448 37.6478 5.14821 63.1114 36.15 73.8573C36.6994 74.0478 37.297 74.0478 37.8464 73.8573C68.8507 63.1111 68.3651 37.6468 68.01 19.0537ZM36.9986 68.6613C10.4104 59.0027 10.8124 37.8443 11.1692 19.1538C11.1906 18.0321 11.2113 16.9449 11.2258 15.8792C21.6004 15.4412 29.8966 12.2974 36.9986 6.11068C44.1012 12.2974 52.3988 15.4416 62.7741 15.8792C62.7886 16.9446 62.8093 18.0311 62.8307 19.1521C63.1871 37.8433 63.5888 59.0024 36.9986 68.6613Z" fill="#00FF99"/>
<path d="M45.9183 28.0023L33.4167 40.5032L28.0819 35.1685C27.5934 34.6962 26.9389 34.4348 26.2594 34.4406C25.58 34.4464 24.93 34.7189 24.4496 35.1993C23.9691 35.6798 23.6967 36.3298 23.691 37.0093C23.6853 37.6887 23.9468 38.3432 24.419 38.8317L31.5852 45.9979C31.8255 46.2387 32.111 46.4297 32.4253 46.5598C32.7396 46.69 33.0765 46.7567 33.4167 46.7563C33.7569 46.7567 34.0938 46.69 34.4081 46.5598C34.7224 46.4297 35.0078 46.2387 35.2481 45.9979L49.5808 31.6655C49.8214 31.425 50.0123 31.1395 50.1425 30.8253C50.2728 30.5111 50.3398 30.1743 50.3398 29.8341C50.3399 29.494 50.2729 29.1572 50.1427 28.8429C50.0126 28.5286 49.8217 28.2431 49.5812 28.0026C49.0955 27.5169 48.4367 27.244 47.7498 27.2439C47.0629 27.2438 46.4041 27.5166 45.9183 28.0023Z" fill="#00FF99"/>
</g>
<defs>
<clipPath id="clip0_12_50">
<rect width="74" height="74" fill="white"/>
</clipPath>
</defs>
</svg>
