<svg width="74" height="74" viewBox="0 0 74 74" fill="none" xmlns="http://www.w3.org/2000/svg">
<g clip-path="url(#clip0_12_58)">
<path d="M56.883 39.6542C54.6385 39.6542 52.4935 40.0876 50.5266 40.8743L48.3255 38.6731C48.988 37.421 49.532 36.1097 49.9504 34.7563H53.8343C55.0316 34.7563 56.0022 33.7856 56.0022 32.5884V23.3557C56.0022 22.1584 55.0316 21.1877 53.8343 21.1877H49.9504C49.532 19.8344 48.988 18.523 48.3255 17.2709L51.0735 14.5229C51.9203 13.6762 51.9193 12.3028 51.0735 11.4568L44.5438 4.92839C43.6971 4.08189 42.3246 4.08204 41.4781 4.92853L38.7303 7.67629C37.4784 7.01381 36.1674 6.46976 34.8143 6.05122V2.16791C34.8143 0.970647 33.8437 0 32.6464 0H23.4127C22.2154 0 21.2448 0.970647 21.2448 2.16791V6.0505C19.8912 6.46899 18.5797 7.01324 17.3275 7.67615L14.5799 4.92853C13.7331 4.08175 12.3598 4.08261 11.514 4.92853L4.98542 11.457C4.13863 12.3036 4.13964 13.6769 4.98542 14.5229L7.73347 17.271C7.07098 18.5232 6.52684 19.8345 6.10811 21.1879H2.2248C1.02753 21.1879 0.0568848 22.1585 0.0568848 23.3558V32.5884C0.0568848 33.7856 1.02753 34.7563 2.2248 34.7563H6.10811C6.52677 36.1096 7.07092 37.421 7.73347 38.6731L4.98542 41.4213C4.13878 42.2678 4.1395 43.6411 4.98542 44.4872L11.514 51.0156C12.3608 51.8624 13.7341 51.8614 14.5799 51.0156L17.3279 48.2676C18.5801 48.9301 19.8914 49.4743 21.2448 49.8929V53.7763C21.2448 54.9735 22.2154 55.9442 23.4127 55.9442H32.6464C33.8437 55.9442 34.8143 54.9735 34.8143 53.7763V49.8929C36.1673 49.4742 37.4782 48.9301 38.73 48.2676L40.9315 50.469C36.3489 61.4419 44.9487 74.1846 56.8833 73.9981C79.6315 73.1356 79.6276 40.5141 56.883 39.6542ZM40.6196 44.0253C40.2719 43.6776 39.8165 43.4585 39.3279 43.4038C38.8393 43.3491 38.3467 43.4621 37.9308 43.7242C36.1489 44.8472 34.2092 45.6522 32.1656 46.117C31.6864 46.226 31.2585 46.4945 30.952 46.8786C30.6455 47.2627 30.4785 47.7395 30.4785 48.2309V51.608H25.5806V48.2309C25.5806 47.7395 25.4136 47.2627 25.1071 46.8786C24.8006 46.4945 24.3727 46.226 23.8935 46.117C21.8496 45.6522 19.8997 44.8431 18.1272 43.7242C17.7113 43.4621 17.2186 43.3491 16.73 43.4038C16.2415 43.4585 15.786 43.6777 15.4384 44.0253L13.047 46.4166L9.58443 42.954L11.9758 40.5627C12.3234 40.2151 12.5426 39.7596 12.5973 39.271C12.652 38.7825 12.5391 38.2898 12.277 37.8739C11.1581 36.1014 10.3489 34.1515 9.88404 32.1075C9.77505 31.6284 9.50651 31.2005 9.12244 30.8939C8.73838 30.5874 8.26157 30.4205 7.77018 30.4205H4.39271V25.5236H7.76989C8.26128 25.5236 8.73809 25.3566 9.12215 25.0501C9.50622 24.7436 9.77476 24.3156 9.88375 23.8365C10.3485 21.7925 11.1577 19.8426 12.2767 18.0701C12.5388 17.6542 12.6518 17.1616 12.597 16.673C12.5423 16.1844 12.3231 15.729 11.9755 15.3813L9.58429 12.99L13.0469 9.52726L15.4382 11.9186C15.786 12.2664 16.2416 12.4855 16.7303 12.5402C17.219 12.5948 17.7118 12.4817 18.1277 12.2194C19.8993 11.0999 21.8488 10.2909 23.8924 9.82715C24.3718 9.71835 24.7999 9.44985 25.1067 9.06571C25.4134 8.68156 25.5805 8.20458 25.5805 7.713V4.33583H30.4784V7.713C30.4784 8.20439 30.6453 8.6812 30.9518 9.06527C31.2584 9.44933 31.6863 9.71787 32.1654 9.82686C34.2088 10.2911 36.1582 11.1002 37.9299 12.2192C38.3458 12.4816 38.8386 12.5947 39.3274 12.5401C39.8161 12.4854 40.2717 12.2662 40.6194 11.9185L43.0109 9.52697L46.4744 12.9898L44.0832 15.3811C43.7355 15.7287 43.5164 16.1841 43.4616 16.6727C43.4069 17.1613 43.5199 17.6539 43.782 18.0698C44.9051 19.852 45.7095 21.7917 46.1735 23.8353C46.2823 24.3147 46.5508 24.7429 46.9349 25.0496C47.3191 25.3564 47.796 25.5234 48.2876 25.5234H51.6659V30.4202H48.2876C47.796 30.4202 47.3191 30.5872 46.9349 30.894C46.5508 31.2007 46.2823 31.6289 46.1735 32.1082C45.7097 34.1519 44.9051 36.0917 43.782 37.8736C43.5199 38.2895 43.4069 38.7822 43.4616 39.2707C43.5163 39.7593 43.7354 40.2147 44.083 40.5624L46.4742 42.9536L43.0108 46.4165L40.6196 44.0253ZM56.883 69.6623C49.805 69.6623 44.0469 63.904 44.0469 56.8261C44.6922 39.8205 69.0765 39.8253 69.7193 56.8262C69.7192 63.904 63.9609 69.6623 56.883 69.6623Z" fill="#00FF99"/>
<path d="M59.8513 52.2918L55.3825 56.7604L53.9141 55.2927C53.0673 54.4462 51.6946 54.4465 50.8483 55.2933C50.0018 56.1401 50.0021 57.5127 50.8488 58.3592L53.8501 61.3593C54.6967 62.2056 56.0692 62.2056 56.9157 61.359L62.917 55.3576C63.7637 54.511 63.7637 53.1384 62.917 52.2918C62.0707 51.4451 60.698 51.4451 59.8513 52.2918ZM28.0288 14.2622C20.4699 14.2622 14.3201 20.4124 14.3201 27.9719C15.0093 46.1355 41.052 46.1294 41.7385 27.9718C41.7387 20.4123 35.5885 14.2622 28.0288 14.2622ZM28.0288 37.3459C22.8606 37.3459 18.6559 33.1407 18.6559 27.9719C19.1271 15.5525 36.9333 15.5572 37.4027 27.9721C37.4029 33.1408 33.1977 37.3459 28.0288 37.3459Z" fill="#00FF99"/>
</g>
<defs>
<clipPath id="clip0_12_58">
<rect width="74" height="74" fill="white"/>
</clipPath>
</defs>
</svg>
