<svg width="37" height="65" viewBox="0 0 37 65" fill="none" xmlns="http://www.w3.org/2000/svg">
<path d="M36.3597 32.22C35.8197 29.71 34.9397 27.48 33.7097 25.55C33.2097 24.8 32.6596 24.08 32.0696 23.41C32.0796 23.4 32.0796 23.39 32.0896 23.38C33.9796 20.52 35.2896 17.23 35.8496 13.7C36.0496 12.44 36.1497 11.15 36.1497 9.84V9.70999C36.1397 6.87999 34.4797 4.33001 31.9297 3.10001C30.7397 2.52001 29.5097 2.02001 28.2397 1.60001C25.1397 0.560006 21.8097 0 18.3597 0C14.8197 0 11.4196 0.589983 8.24964 1.66998C6.96964 2.10998 5.72965 2.62 4.53965 3.22C2.02965 4.46 0.379644 6.99001 0.379644 9.79001V9.82999C0.379644 11.2 0.489661 12.55 0.709661 13.86C1.28966 17.39 2.61965 20.67 4.53965 23.53C4.10965 24.02 3.69965 24.54 3.31965 25.08C3.27965 25.13 3.24964 25.18 3.21964 25.23C2.99964 25.54 2.79965 25.86 2.59965 26.18C1.57965 27.89 0.819654 29.78 0.389654 31.79C0.209654 32.61 0.099638 33.45 0.029638 34.3C-0.030362 35.43 -0.00035587 36.59 0.129644 37.78C0.209644 38.54 0.349659 39.3 0.519659 40.03C0.539659 40.1 0.559656 40.18 0.579656 40.25C1.20966 42.79 2.32966 45.17 3.64966 47.46C6.47966 52.41 10.1397 56.7 14.1797 60.69C15.5197 62.01 16.9197 63.27 18.2997 64.56C18.4997 64.4 18.6297 64.3 18.7596 64.2C21.6596 61.69 24.3697 58.98 26.8697 56.07C30.0997 52.31 32.9597 48.31 34.9197 43.72C34.9797 43.57 35.0497 43.42 35.1097 43.26C36.5297 39.72 37.1797 36.04 36.3597 32.22ZM10.4597 35.59C10.4897 31.31 14.0596 27.79 18.3496 27.81C22.7096 27.83 26.2297 31.4 26.1997 35.76C26.1697 40.08 22.6196 43.58 18.2796 43.55C13.9096 43.52 10.4297 39.98 10.4597 35.59ZM8.39966 8.44C10.3597 7.55 13.7297 6.44998 18.3597 6.44998C23.0497 6.44998 26.3696 7.53999 28.2796 8.39999C29.4696 8.93999 30.1896 10.19 30.0596 11.49C29.8796 13.27 29.4596 15.03 28.8396 16.66C28.2396 18.25 26.4696 19.06 24.8796 18.45C22.8596 17.69 20.6597 17.26 18.3697 17.26C18.3197 17.26 18.2597 17.26 18.2097 17.26C15.9397 17.28 13.7596 17.71 11.7596 18.48C11.6496 18.52 11.5296 18.56 11.4096 18.59C9.88964 18.98 8.28964 18.15 7.74964 16.63C7.19964 15.06 6.83965 13.37 6.60965 11.65C6.40966 10.31 7.14966 9 8.39966 8.44Z" fill="url(#paint0_linear_12_112)"/>
<defs>
<linearGradient id="paint0_linear_12_112" x1="18.3551" y1="1.6426" x2="18.3551" y2="56.3626" gradientUnits="userSpaceOnUse">
<stop stop-color="#3EFFFF"/>
<stop offset="1" stop-color="#00FF99"/>
</linearGradient>
</defs>
</svg>
